<svg xmlns="http://www.w3.org/2000/svg" version="1.1" xmlns:xlink="http://www.w3.org/1999/xlink" xmlns:svgjs="http://svgjs.com/svgjs" width="512pt" height="512pt"><svg width="512pt" height="512pt" version="1.1" viewBox="0 0 512 512" xmlns="http://www.w3.org/2000/svg">
 <path d="m410.11 163.33 57.855-106.5c4.0977-7.6797 1.5352-17.406-6.6562-21.504-7.6797-4.0977-17.406-1.5352-21.504 6.6562l-102.4 188.41c-9.2148 0.51172-19.457 1.0234-29.695 1.5352l94.719-175.11c4.0977-7.6797 1.5352-17.406-6.6562-21.504-7.6797-4.0977-17.406-1.5352-21.504 6.6562l-103.42 190.98h-14.848c-113.15 0-182.79-13.824-205.31-24.062 22.527-9.7266 92.672-24.062 205.31-24.062h11.777l17.406-31.742c-11.266 0-21.504-0.51172-28.672-0.51172-56.832 0-243.2 4.0977-243.2 55.809 0 2.0469 0.51172 3.5859 1.0234 5.1211l36.863 105.46c12.801 35.84 37.375 67.586 71.168 91.137 6.6562 4.6094 14.336 8.1914 22.527 11.266v30.719c0 10.238 7.6797 19.457 17.922 20.992 25.602 3.5859 57.855 5.6328 93.695 5.6328 35.328 0 68.098-2.0469 93.184-5.6328 10.238-1.5352 17.922-10.238 17.922-20.992v-30.719c8.1914-3.0703 15.871-6.6562 22.527-11.266 34.305-24.062 58.879-55.297 71.68-91.137l36.863-104.45c0.51172-1.5352 1.0234-3.5859 1.0234-5.1211-0.51172-24.574-40.957-38.398-89.598-46.078zm-16.387 30.207c33.793 4.6094 56.32 10.754 67.586 15.359-12.801 5.6328-41.984 12.801-85.504 17.922z"></path>
</svg><style>@media (prefers-color-scheme: light) { :root { filter: none; } }
</style></svg>