<?xml version="1.0" encoding="UTF-8"?>
<svg width="1200pt" height="1200pt" version="1.1" viewBox="0 0 1200 1200" xmlns="http://www.w3.org/2000/svg">
 <path d="m961.2 382.8 135.6-249.6c9.6016-18 3.6016-40.801-15.602-50.398-18-9.6016-40.801-3.6016-50.398 15.602l-240 441.6c-21.602 1.1992-45.602 2.3984-69.602 3.6016l222-410.4c9.6016-18 3.6016-40.801-15.602-50.398-18-9.6016-40.801-3.6016-50.398 15.602l-242.4 447.59h-34.801c-265.2 0-428.4-32.398-481.2-56.398 52.801-22.801 217.2-56.398 481.2-56.398h27.602l40.801-74.398c-26.398 0-50.398-1.1992-67.199-1.1992-133.2 0-570 9.6016-570 130.8 0 4.8008 1.1992 8.3984 2.3984 12l86.398 247.2c30 84 87.602 158.4 166.8 213.6 15.602 10.801 33.602 19.199 52.801 26.398v72c0 24 18 45.602 42 49.199 60 8.3984 135.6 13.199 219.6 13.199 82.801 0 159.6-4.8008 218.4-13.199 24-3.6016 42-24 42-49.199v-72c19.199-7.1992 37.199-15.602 52.801-26.398 80.398-56.398 138-129.6 168-213.6l86.398-244.8c1.1992-3.6016 2.3984-8.3984 2.3984-12-1.1992-57.602-96-90-210-108zm-38.398 70.801c79.199 10.801 132 25.199 158.4 36-30 13.199-98.398 30-200.4 42z"/>
</svg>
